<?xml version="1.0" encoding="UTF-8" standalone="no"?>
<svg
   xmlns:dc="http://purl.org/dc/elements/1.1/"
   xmlns:cc="http://creativecommons.org/ns#"
   xmlns:rdf="http://www.w3.org/1999/02/22-rdf-syntax-ns#"
   xmlns:svg="http://www.w3.org/2000/svg"
   xmlns="http://www.w3.org/2000/svg"
   xmlns:sodipodi="http://sodipodi.sourceforge.net/DTD/sodipodi-0.dtd"
   xmlns:inkscape="http://www.inkscape.org/namespaces/inkscape"
   width="125mm"
   height="25mm"
   viewBox="0 0 125 25"
   version="1.1"
   id="svg56"
   inkscape:version="1.0.2 (e86c870879, 2021-01-15)"
   sodipodi:docname="Happy Easter! 125x25.svg">
  <defs
     id="defs50">
    <rect
       x="5.5620149"
       y="4.2377256"
       width="118.25903"
       height="18.672479"
       id="rect22" />
  </defs>
  <sodipodi:namedview
     id="base"
     pagecolor="#ffffff"
     bordercolor="#666666"
     borderopacity="1.0"
     inkscape:pageopacity="0.0"
     inkscape:pageshadow="2"
     inkscape:zoom="1.866066"
     inkscape:cx="-66.96042"
     inkscape:cy="107.6856"
     inkscape:document-units="mm"
     inkscape:current-layer="layer1"
     inkscape:document-rotation="0"
     showgrid="false"
     inkscape:window-width="1022"
     inkscape:window-height="702"
     inkscape:window-x="0"
     inkscape:window-y="36"
     inkscape:window-maximized="0" />
  <metadata
     id="metadata53">
    <rdf:RDF>
      <cc:Work
         rdf:about="">
        <dc:format>image/svg+xml</dc:format>
        <dc:type
           rdf:resource="http://purl.org/dc/dcmitype/StillImage" />
        <dc:title />
      </cc:Work>
    </rdf:RDF>
  </metadata>
  <g
     inkscape:label="Layer 1"
     inkscape:groupmode="layer"
     id="layer1">
    <g
       inkscape:label="Hershey Text"
       style="fill:none;stroke:#000000;stroke-linecap:round;stroke-linejoin:round"
       transform="matrix(1.03855 0 0 1.27687 -3.79914 -2.674)"
       id="g68">
      <g
         transform="translate(5.5625, 13.602)"
         id="g66">
        <path
           d="M 220 662 L 220 0 M 662 662 L 662 0 M 220 346 L 662 346"
           style="stroke-width:0.02657in"
           transform="scale(0.0105833, -0.0105833)"
           id="path30" />
        <path
           d="M 567 441 L 567 0 M 567 346 L 504 410 L 441 441 L 346 441 L 284 410 L 220 346 L 189 252 L 189 189 L 220 94.5 L 284 31.5 L 346 0 L 441 0 L 504 31.5 L 567 94.5"
           style="stroke-width:0.02657in"
           transform="matrix(0.0105833 0 0 -0.0105833 7.33423 0)"
           id="path32" />
        <path
           d="M 220 441 L 220 -220 M 220 346 L 284 410 L 346 441 L 441 441 L 504 410 L 567 346 L 598 252 L 598 189 L 567 94.5 L 504 31.5 L 441 0 L 346 0 L 284 31.5 L 220 94.5"
           style="stroke-width:0.02657in"
           transform="matrix(0.0105833 0 0 -0.0105833 13.663 0)"
           id="path34" />
        <path
           d="M 220 441 L 220 -220 M 220 346 L 284 410 L 346 441 L 441 441 L 504 410 L 567 346 L 598 252 L 598 189 L 567 94.5 L 504 31.5 L 441 0 L 346 0 L 284 31.5 L 220 94.5"
           style="stroke-width:0.02657in"
           transform="matrix(0.0105833 0 0 -0.0105833 19.9919 0)"
           id="path36" />
        <path
           d="M 158 441 L 346 0 M 536 441 L 346 0 L 284 -126 L 220 -189 L 158 -220 L 126 -220"
           style="stroke-width:0.02657in"
           transform="matrix(0.0105833 0 0 -0.0105833 26.3207 0)"
           id="path38" />
        <path
           d="M 252 126 L 220 94.5 L 189 126 L 220 158 L 252 126 L 252 63 L 189 0"
           style="stroke-width:0.02657in"
           transform="matrix(0.0105833 0 0 -0.0105833 31.6547 0)"
           id="path40" />
        <path
           d="M 220 662 L 220 0 M 220 315 L 315 410 L 378 441 L 472 441 L 536 410 L 567 315 L 567 0"
           style="stroke-width:0.02657in"
           transform="matrix(0.0105833 0 0 -0.0105833 38.3221 0)"
           id="path42" />
        <path
           d="M 346 441 L 284 410 L 220 346 L 189 252 L 189 189 L 220 94.5 L 284 31.5 L 346 0 L 441 0 L 504 31.5 L 567 94.5 L 598 189 L 598 252 L 567 346 L 504 410 L 441 441 L 346 441"
           style="stroke-width:0.02657in"
           transform="matrix(0.0105833 0 0 -0.0105833 44.6509 0)"
           id="path44" />
        <path
           d="M 220 441 L 220 -220 M 220 346 L 284 410 L 346 441 L 441 441 L 504 410 L 567 346 L 598 252 L 598 189 L 567 94.5 L 504 31.5 L 441 0 L 346 0 L 284 31.5 L 220 94.5"
           style="stroke-width:0.02657in"
           transform="matrix(0.0105833 0 0 -0.0105833 50.9798 0)"
           id="path46" />
        <path
           d="M 220 441 L 220 -220 M 220 346 L 284 410 L 346 441 L 441 441 L 504 410 L 567 346 L 598 252 L 598 189 L 567 94.5 L 504 31.5 L 441 0 L 346 0 L 284 31.5 L 220 94.5"
           style="stroke-width:0.02657in"
           transform="matrix(0.0105833 0 0 -0.0105833 57.3086 0)"
           id="path48" />
        <path
           d="M 158 441 L 346 0 M 536 441 L 346 0 L 284 -126 L 220 -189 L 158 -220 L 126 -220"
           style="stroke-width:0.02657in"
           transform="matrix(0.0105833 0 0 -0.0105833 63.6374 0)"
           id="path50" />
        <path
           d="M 220 662 L 220 0 M 220 662 L 630 662 M 220 346 L 472 346 M 220 0 L 630 0"
           style="stroke-width:0.02657in"
           transform="matrix(0.0105833 0 0 -0.0105833 72.9719 0)"
           id="path52" />
        <path
           d="M 567 441 L 567 0 M 567 346 L 504 410 L 441 441 L 346 441 L 284 410 L 220 346 L 189 252 L 189 189 L 220 94.5 L 284 31.5 L 346 0 L 441 0 L 504 31.5 L 567 94.5"
           style="stroke-width:0.02657in"
           transform="matrix(0.0105833 0 0 -0.0105833 79.3007 0)"
           id="path54" />
        <path
           d="M 536 346 L 504 410 L 410 441 L 315 441 L 220 410 L 189 346 L 220 284 L 284 252 L 441 220 L 504 189 L 536 126 L 536 94.5 L 504 31.5 L 410 0 L 315 0 L 220 31.5 L 189 94.5"
           style="stroke-width:0.02657in"
           transform="matrix(0.0105833 0 0 -0.0105833 85.6295 0)"
           id="path56" />
        <path
           d="M 252 662 L 252 126 L 284 31.5 L 346 0 L 410 0 M 158 441 L 378 441"
           style="stroke-width:0.02657in"
           transform="matrix(0.0105833 0 0 -0.0105833 91.3021 0)"
           id="path58" />
        <path
           d="M 189 252 L 567 252 L 567 315 L 536 378 L 504 410 L 441 441 L 346 441 L 284 410 L 220 346 L 189 252 L 189 189 L 220 94.5 L 284 31.5 L 346 0 L 441 0 L 504 31.5 L 567 94.5"
           style="stroke-width:0.02657in"
           transform="matrix(0.0105833 0 0 -0.0105833 95.3026 0)"
           id="path60" />
        <path
           d="M 220 441 L 220 0 M 220 252 L 252 346 L 315 410 L 378 441 L 472 441"
           style="stroke-width:0.02657in"
           transform="matrix(0.0105833 0 0 -0.0105833 101.303 0)"
           id="path62" />
        <path
           d="M 315 662 L 315 220 M 315 63 L 284 31.5 L 315 0 L 346 31.5 L 315 63"
           style="stroke-width:0.02657in"
           transform="matrix(0.0105833 0 0 -0.0105833 105.643 0)"
           id="path64" />
      </g>
    </g>
  </g>
</svg>
